<svg width="147" height="144" viewBox="0 0 147 144" fill="none" xmlns="http://www.w3.org/2000/svg">
<path d="M0 143.176V117.377H33.7143C41.3444 117.377 48.6158 114.139 53.72 108.467L61.594 99.7186C64.1461 96.8829 67.7818 95.2637 71.5968 95.2637H141.526C132.299 123.824 105.709 143.176 75.6958 143.176H0Z" fill="white"/>
<path d="M0 45.8765V0.175293H77.2269C96.4548 0.175293 114.659 8.83995 126.784 23.763H82.3767C74.2278 23.763 66.6464 27.9355 62.2863 34.8198C57.9263 41.7041 50.3449 45.8765 42.196 45.8765H0Z" fill="white"/>
<path d="M0 95.2631V67.2527H40.57C44.312 67.2527 47.8852 65.6945 50.4315 62.9523L53.5079 59.6393C55.181 57.8375 56.7201 55.9159 58.1131 53.8898C61.8791 48.4119 68.1007 45.1392 74.7483 45.1392H141.526L141.61 45.3543C144.965 53.981 146.686 63.1564 146.686 72.4125H83.1919C74.4707 72.4125 66.29 76.6382 61.2426 83.7504L57.0955 89.5941C54.5718 93.1502 50.4815 95.2631 46.1209 95.2631H0Z" fill="white"/>
</svg>
